<mxfile host="app.diagrams.net" modified="2023-08-01T09:47:53.884Z" agent="Mozilla/5.0 (Windows NT 10.0; Win64; x64) AppleWebKit/537.36 (KHTML, like Gecko) Chrome/115.0.0.0 Safari/537.36 Edg/115.0.1901.188" version="21.6.5" etag="Lqo8Nlw6P7atWaARvwFf" type="device">
  <diagram id="De9Vc6kwO28veqgYgvxa" name="Page-1">
    <mxGraphModel dx="1780" dy="796" grid="1" gridSize="10" guides="1" tooltips="1" connect="1" arrows="1" fold="1" page="1" pageScale="1" pageWidth="1169" pageHeight="827" math="0" shadow="0">
      <root>
        <mxCell id="0" />
        <mxCell id="1" parent="0" />
        <mxCell id="2" value="" style="whiteSpace=wrap;html=1;aspect=fixed;" parent="1" vertex="1">
          <mxGeometry x="40" y="360" width="40" height="40" as="geometry" />
        </mxCell>
        <mxCell id="23" style="edgeStyle=none;html=1;exitX=0;exitY=0.5;exitDx=0;exitDy=0;entryX=0;entryY=0.5;entryDx=0;entryDy=0;" parent="1" target="3" edge="1">
          <mxGeometry relative="1" as="geometry">
            <mxPoint x="80" y="380" as="sourcePoint" />
          </mxGeometry>
        </mxCell>
        <mxCell id="45" style="edgeStyle=none;html=1;exitX=1;exitY=0.5;exitDx=0;exitDy=0;entryX=0;entryY=0.5;entryDx=0;entryDy=0;" parent="1" source="3" edge="1">
          <mxGeometry relative="1" as="geometry">
            <mxPoint x="200" y="380" as="targetPoint" />
          </mxGeometry>
        </mxCell>
        <mxCell id="3" value="" style="whiteSpace=wrap;html=1;aspect=fixed;" parent="1" vertex="1">
          <mxGeometry x="120" y="585" width="40" height="40" as="geometry" />
        </mxCell>
        <mxCell id="22" style="edgeStyle=none;html=1;exitX=0;exitY=0.5;exitDx=0;exitDy=0;entryX=0;entryY=0.5;entryDx=0;entryDy=0;" parent="1" target="4" edge="1">
          <mxGeometry relative="1" as="geometry">
            <mxPoint x="80" y="380" as="sourcePoint" />
          </mxGeometry>
        </mxCell>
        <mxCell id="53" style="edgeStyle=none;html=1;exitX=1;exitY=0.5;exitDx=0;exitDy=0;" parent="1" source="4" edge="1">
          <mxGeometry relative="1" as="geometry">
            <mxPoint x="200" y="380" as="targetPoint" />
          </mxGeometry>
        </mxCell>
        <mxCell id="4" value="" style="whiteSpace=wrap;html=1;aspect=fixed;" parent="1" vertex="1">
          <mxGeometry x="120" y="535" width="40" height="40" as="geometry" />
        </mxCell>
        <mxCell id="21" style="edgeStyle=none;html=1;exitX=1;exitY=0.5;exitDx=0;exitDy=0;entryX=0;entryY=0.5;entryDx=0;entryDy=0;" parent="1" source="2" target="5" edge="1">
          <mxGeometry relative="1" as="geometry" />
        </mxCell>
        <mxCell id="50" style="edgeStyle=none;html=1;exitX=1;exitY=0.5;exitDx=0;exitDy=0;" parent="1" source="5" edge="1">
          <mxGeometry relative="1" as="geometry">
            <mxPoint x="200" y="380" as="targetPoint" />
          </mxGeometry>
        </mxCell>
        <mxCell id="5" value="" style="whiteSpace=wrap;html=1;aspect=fixed;" parent="1" vertex="1">
          <mxGeometry x="120" y="485" width="40" height="40" as="geometry" />
        </mxCell>
        <mxCell id="20" style="edgeStyle=none;html=1;exitX=1;exitY=0.5;exitDx=0;exitDy=0;entryX=0;entryY=0.5;entryDx=0;entryDy=0;" parent="1" source="2" target="6" edge="1">
          <mxGeometry relative="1" as="geometry" />
        </mxCell>
        <mxCell id="52" style="edgeStyle=none;html=1;exitX=1;exitY=0.5;exitDx=0;exitDy=0;" parent="1" source="6" edge="1">
          <mxGeometry relative="1" as="geometry">
            <mxPoint x="200" y="380" as="targetPoint" />
          </mxGeometry>
        </mxCell>
        <mxCell id="6" value="" style="whiteSpace=wrap;html=1;aspect=fixed;" parent="1" vertex="1">
          <mxGeometry x="120" y="435" width="40" height="40" as="geometry" />
        </mxCell>
        <mxCell id="19" style="edgeStyle=none;html=1;exitX=0;exitY=0.5;exitDx=0;exitDy=0;entryX=0;entryY=0.5;entryDx=0;entryDy=0;" parent="1" target="7" edge="1">
          <mxGeometry relative="1" as="geometry">
            <mxPoint x="80" y="380" as="sourcePoint" />
          </mxGeometry>
        </mxCell>
        <mxCell id="47" style="edgeStyle=none;html=1;exitX=1;exitY=0.5;exitDx=0;exitDy=0;entryX=0;entryY=0.5;entryDx=0;entryDy=0;" parent="1" source="7" edge="1">
          <mxGeometry relative="1" as="geometry">
            <mxPoint x="200" y="380" as="targetPoint" />
          </mxGeometry>
        </mxCell>
        <mxCell id="7" value="" style="whiteSpace=wrap;html=1;aspect=fixed;" parent="1" vertex="1">
          <mxGeometry x="120" y="385" width="40" height="40" as="geometry" />
        </mxCell>
        <mxCell id="18" style="edgeStyle=none;html=1;exitX=0;exitY=0.5;exitDx=0;exitDy=0;entryX=0;entryY=0.5;entryDx=0;entryDy=0;" parent="1" target="8" edge="1">
          <mxGeometry relative="1" as="geometry">
            <mxPoint x="80" y="380" as="sourcePoint" />
          </mxGeometry>
        </mxCell>
        <mxCell id="48" style="edgeStyle=none;html=1;exitX=1;exitY=0.5;exitDx=0;exitDy=0;" parent="1" source="8" edge="1">
          <mxGeometry relative="1" as="geometry">
            <mxPoint x="200" y="380" as="targetPoint" />
          </mxGeometry>
        </mxCell>
        <mxCell id="8" value="" style="whiteSpace=wrap;html=1;aspect=fixed;" parent="1" vertex="1">
          <mxGeometry x="120" y="335" width="40" height="40" as="geometry" />
        </mxCell>
        <mxCell id="17" style="edgeStyle=none;html=1;exitX=0;exitY=0.5;exitDx=0;exitDy=0;entryX=0;entryY=0.5;entryDx=0;entryDy=0;" parent="1" target="9" edge="1">
          <mxGeometry relative="1" as="geometry">
            <mxPoint x="80" y="380" as="sourcePoint" />
          </mxGeometry>
        </mxCell>
        <mxCell id="51" style="edgeStyle=none;html=1;exitX=1;exitY=0.5;exitDx=0;exitDy=0;entryX=0;entryY=0.5;entryDx=0;entryDy=0;" parent="1" source="9" edge="1">
          <mxGeometry relative="1" as="geometry">
            <mxPoint x="200" y="380" as="targetPoint" />
          </mxGeometry>
        </mxCell>
        <mxCell id="9" value="" style="whiteSpace=wrap;html=1;aspect=fixed;" parent="1" vertex="1">
          <mxGeometry x="120" y="285" width="40" height="40" as="geometry" />
        </mxCell>
        <mxCell id="16" style="edgeStyle=none;html=1;exitX=0;exitY=0.5;exitDx=0;exitDy=0;entryX=0;entryY=0.5;entryDx=0;entryDy=0;" parent="1" target="10" edge="1">
          <mxGeometry relative="1" as="geometry">
            <mxPoint x="80" y="380" as="sourcePoint" />
          </mxGeometry>
        </mxCell>
        <mxCell id="49" style="edgeStyle=none;html=1;exitX=1;exitY=0.5;exitDx=0;exitDy=0;entryX=0;entryY=0.5;entryDx=0;entryDy=0;" parent="1" source="10" edge="1">
          <mxGeometry relative="1" as="geometry">
            <mxPoint x="200" y="380" as="targetPoint" />
          </mxGeometry>
        </mxCell>
        <mxCell id="10" value="" style="whiteSpace=wrap;html=1;aspect=fixed;" parent="1" vertex="1">
          <mxGeometry x="120" y="235" width="40" height="40" as="geometry" />
        </mxCell>
        <mxCell id="15" style="edgeStyle=none;html=1;exitX=0;exitY=0.5;exitDx=0;exitDy=0;entryX=0;entryY=0.5;entryDx=0;entryDy=0;" parent="1" target="11" edge="1">
          <mxGeometry relative="1" as="geometry">
            <mxPoint x="80" y="380" as="sourcePoint" />
          </mxGeometry>
        </mxCell>
        <mxCell id="54" style="edgeStyle=none;html=1;exitX=1;exitY=0.5;exitDx=0;exitDy=0;" parent="1" source="11" edge="1">
          <mxGeometry relative="1" as="geometry">
            <mxPoint x="200" y="380" as="targetPoint" />
          </mxGeometry>
        </mxCell>
        <mxCell id="11" value="" style="whiteSpace=wrap;html=1;aspect=fixed;" parent="1" vertex="1">
          <mxGeometry x="120" y="185" width="40" height="40" as="geometry" />
        </mxCell>
        <mxCell id="14" style="edgeStyle=none;html=1;exitX=1;exitY=0.5;exitDx=0;exitDy=0;entryX=0;entryY=0.5;entryDx=0;entryDy=0;" parent="1" source="2" target="12" edge="1">
          <mxGeometry relative="1" as="geometry" />
        </mxCell>
        <mxCell id="46" style="edgeStyle=none;html=1;exitX=1;exitY=0.5;exitDx=0;exitDy=0;" parent="1" source="12" edge="1">
          <mxGeometry relative="1" as="geometry">
            <mxPoint x="200" y="380" as="targetPoint" />
          </mxGeometry>
        </mxCell>
        <mxCell id="12" value="" style="whiteSpace=wrap;html=1;aspect=fixed;" parent="1" vertex="1">
          <mxGeometry x="120" y="135" width="40" height="40" as="geometry" />
        </mxCell>
        <mxCell id="82" style="edgeStyle=none;html=1;exitX=1;exitY=0.5;exitDx=0;exitDy=0;entryX=0;entryY=0.5;entryDx=0;entryDy=0;" parent="1" target="55" edge="1">
          <mxGeometry relative="1" as="geometry">
            <mxPoint x="320" y="380" as="sourcePoint" />
          </mxGeometry>
        </mxCell>
        <mxCell id="55" value="ENC" style="rounded=0;whiteSpace=wrap;html=1;" parent="1" vertex="1">
          <mxGeometry x="360" y="280" width="40" height="200" as="geometry" />
        </mxCell>
        <mxCell id="87" style="edgeStyle=none;html=1;exitX=1;exitY=1;exitDx=0;exitDy=0;entryX=0;entryY=0.5;entryDx=0;entryDy=0;" parent="1" target="59" edge="1" source="133">
          <mxGeometry relative="1" as="geometry">
            <mxPoint x="560" y="220" as="sourcePoint" />
          </mxGeometry>
        </mxCell>
        <mxCell id="85" style="edgeStyle=none;html=1;exitX=0;exitY=0.5;exitDx=0;exitDy=0;entryX=0;entryY=0.5;entryDx=0;entryDy=0;" parent="1" edge="1">
          <mxGeometry relative="1" as="geometry">
            <mxPoint x="440" y="380" as="targetPoint" />
            <mxPoint x="400" y="380.33333333333337" as="sourcePoint" />
          </mxGeometry>
        </mxCell>
        <mxCell id="88" style="edgeStyle=none;html=1;exitX=1;exitY=0.5;exitDx=0;exitDy=0;entryX=0;entryY=0;entryDx=0;entryDy=0;" parent="1" target="66" edge="1">
          <mxGeometry relative="1" as="geometry">
            <mxPoint x="560" y="380" as="sourcePoint" />
          </mxGeometry>
        </mxCell>
        <mxCell id="89" style="edgeStyle=none;html=1;exitX=0;exitY=1;exitDx=0;exitDy=0;entryX=0;entryY=0;entryDx=0;entryDy=0;" parent="1" target="76" edge="1" source="133">
          <mxGeometry relative="1" as="geometry">
            <mxPoint x="560" y="540" as="sourcePoint" />
          </mxGeometry>
        </mxCell>
        <mxCell id="110" style="edgeStyle=none;html=1;exitX=1;exitY=0.5;exitDx=0;exitDy=0;" parent="1" source="59" edge="1">
          <mxGeometry relative="1" as="geometry">
            <mxPoint x="760.2" y="215.39999999999998" as="targetPoint" />
          </mxGeometry>
        </mxCell>
        <mxCell id="59" value="" style="whiteSpace=wrap;html=1;aspect=fixed;" parent="1" vertex="1">
          <mxGeometry x="720" y="195" width="40" height="40" as="geometry" />
        </mxCell>
        <mxCell id="60" value="" style="whiteSpace=wrap;html=1;aspect=fixed;" parent="1" vertex="1">
          <mxGeometry x="727.5" y="330" width="10" height="10" as="geometry" />
        </mxCell>
        <mxCell id="62" value="" style="whiteSpace=wrap;html=1;aspect=fixed;" parent="1" vertex="1">
          <mxGeometry x="727.5" y="340" width="10" height="10" as="geometry" />
        </mxCell>
        <mxCell id="63" value="" style="whiteSpace=wrap;html=1;aspect=fixed;" parent="1" vertex="1">
          <mxGeometry x="727.5" y="350" width="10" height="10" as="geometry" />
        </mxCell>
        <mxCell id="64" value="" style="whiteSpace=wrap;html=1;aspect=fixed;" parent="1" vertex="1">
          <mxGeometry x="727.5" y="360" width="10" height="10" as="geometry" />
        </mxCell>
        <mxCell id="65" value="" style="whiteSpace=wrap;html=1;aspect=fixed;" parent="1" vertex="1">
          <mxGeometry x="727.5" y="370" width="10" height="10" as="geometry" />
        </mxCell>
        <mxCell id="66" value="" style="whiteSpace=wrap;html=1;aspect=fixed;" parent="1" vertex="1">
          <mxGeometry x="727.5" y="380" width="10" height="10" as="geometry" />
        </mxCell>
        <mxCell id="67" value="" style="whiteSpace=wrap;html=1;aspect=fixed;" parent="1" vertex="1">
          <mxGeometry x="727.5" y="390" width="10" height="10" as="geometry" />
        </mxCell>
        <mxCell id="68" value="" style="whiteSpace=wrap;html=1;aspect=fixed;" parent="1" vertex="1">
          <mxGeometry x="727.5" y="400" width="10" height="10" as="geometry" />
        </mxCell>
        <mxCell id="69" value="" style="whiteSpace=wrap;html=1;aspect=fixed;" parent="1" vertex="1">
          <mxGeometry x="727.5" y="410" width="10" height="10" as="geometry" />
        </mxCell>
        <mxCell id="70" value="" style="whiteSpace=wrap;html=1;aspect=fixed;" parent="1" vertex="1">
          <mxGeometry x="727.5" y="420" width="10" height="10" as="geometry" />
        </mxCell>
        <mxCell id="71" value="" style="whiteSpace=wrap;html=1;aspect=fixed;" parent="1" vertex="1">
          <mxGeometry x="727.5" y="485" width="10" height="10" as="geometry" />
        </mxCell>
        <mxCell id="72" value="" style="whiteSpace=wrap;html=1;aspect=fixed;" parent="1" vertex="1">
          <mxGeometry x="727.5" y="495" width="10" height="10" as="geometry" />
        </mxCell>
        <mxCell id="73" value="" style="whiteSpace=wrap;html=1;aspect=fixed;" parent="1" vertex="1">
          <mxGeometry x="727.5" y="505" width="10" height="10" as="geometry" />
        </mxCell>
        <mxCell id="74" value="" style="whiteSpace=wrap;html=1;aspect=fixed;" parent="1" vertex="1">
          <mxGeometry x="727.5" y="515" width="10" height="10" as="geometry" />
        </mxCell>
        <mxCell id="75" value="" style="whiteSpace=wrap;html=1;aspect=fixed;" parent="1" vertex="1">
          <mxGeometry x="727.5" y="525" width="10" height="10" as="geometry" />
        </mxCell>
        <mxCell id="76" value="" style="whiteSpace=wrap;html=1;aspect=fixed;" parent="1" vertex="1">
          <mxGeometry x="727.5" y="535" width="10" height="10" as="geometry" />
        </mxCell>
        <mxCell id="77" value="" style="whiteSpace=wrap;html=1;aspect=fixed;" parent="1" vertex="1">
          <mxGeometry x="727.5" y="545" width="10" height="10" as="geometry" />
        </mxCell>
        <mxCell id="78" value="" style="whiteSpace=wrap;html=1;aspect=fixed;" parent="1" vertex="1">
          <mxGeometry x="727.5" y="555" width="10" height="10" as="geometry" />
        </mxCell>
        <mxCell id="79" value="" style="whiteSpace=wrap;html=1;aspect=fixed;" parent="1" vertex="1">
          <mxGeometry x="727.5" y="565" width="10" height="10" as="geometry" />
        </mxCell>
        <mxCell id="80" value="" style="whiteSpace=wrap;html=1;aspect=fixed;" parent="1" vertex="1">
          <mxGeometry x="727.5" y="575" width="10" height="10" as="geometry" />
        </mxCell>
        <mxCell id="90" value="" style="whiteSpace=wrap;html=1;aspect=fixed;" parent="1" vertex="1">
          <mxGeometry x="742.5" y="330" width="10" height="10" as="geometry" />
        </mxCell>
        <mxCell id="91" value="" style="whiteSpace=wrap;html=1;aspect=fixed;" parent="1" vertex="1">
          <mxGeometry x="742.5" y="340" width="10" height="10" as="geometry" />
        </mxCell>
        <mxCell id="92" value="" style="whiteSpace=wrap;html=1;aspect=fixed;" parent="1" vertex="1">
          <mxGeometry x="742.5" y="350" width="10" height="10" as="geometry" />
        </mxCell>
        <mxCell id="93" value="" style="whiteSpace=wrap;html=1;aspect=fixed;" parent="1" vertex="1">
          <mxGeometry x="742.5" y="360" width="10" height="10" as="geometry" />
        </mxCell>
        <mxCell id="94" value="" style="whiteSpace=wrap;html=1;aspect=fixed;" parent="1" vertex="1">
          <mxGeometry x="742.5" y="370" width="10" height="10" as="geometry" />
        </mxCell>
        <mxCell id="95" value="" style="whiteSpace=wrap;html=1;aspect=fixed;" parent="1" vertex="1">
          <mxGeometry x="742.5" y="380" width="10" height="10" as="geometry" />
        </mxCell>
        <mxCell id="96" value="" style="whiteSpace=wrap;html=1;aspect=fixed;" parent="1" vertex="1">
          <mxGeometry x="742.5" y="390" width="10" height="10" as="geometry" />
        </mxCell>
        <mxCell id="97" value="" style="whiteSpace=wrap;html=1;aspect=fixed;" parent="1" vertex="1">
          <mxGeometry x="742.5" y="400" width="10" height="10" as="geometry" />
        </mxCell>
        <mxCell id="98" value="" style="whiteSpace=wrap;html=1;aspect=fixed;" parent="1" vertex="1">
          <mxGeometry x="742.5" y="410" width="10" height="10" as="geometry" />
        </mxCell>
        <mxCell id="99" value="" style="whiteSpace=wrap;html=1;aspect=fixed;" parent="1" vertex="1">
          <mxGeometry x="742.5" y="420" width="10" height="10" as="geometry" />
        </mxCell>
        <mxCell id="100" value="" style="whiteSpace=wrap;html=1;aspect=fixed;" parent="1" vertex="1">
          <mxGeometry x="742.5" y="485" width="10" height="10" as="geometry" />
        </mxCell>
        <mxCell id="101" value="" style="whiteSpace=wrap;html=1;aspect=fixed;" parent="1" vertex="1">
          <mxGeometry x="742.5" y="495" width="10" height="10" as="geometry" />
        </mxCell>
        <mxCell id="102" value="" style="whiteSpace=wrap;html=1;aspect=fixed;" parent="1" vertex="1">
          <mxGeometry x="742.5" y="505" width="10" height="10" as="geometry" />
        </mxCell>
        <mxCell id="103" value="" style="whiteSpace=wrap;html=1;aspect=fixed;" parent="1" vertex="1">
          <mxGeometry x="742.5" y="515" width="10" height="10" as="geometry" />
        </mxCell>
        <mxCell id="104" value="" style="whiteSpace=wrap;html=1;aspect=fixed;" parent="1" vertex="1">
          <mxGeometry x="742.5" y="525" width="10" height="10" as="geometry" />
        </mxCell>
        <mxCell id="105" value="" style="whiteSpace=wrap;html=1;aspect=fixed;" parent="1" vertex="1">
          <mxGeometry x="742.5" y="535" width="10" height="10" as="geometry" />
        </mxCell>
        <mxCell id="106" value="" style="whiteSpace=wrap;html=1;aspect=fixed;" parent="1" vertex="1">
          <mxGeometry x="742.5" y="545" width="10" height="10" as="geometry" />
        </mxCell>
        <mxCell id="107" value="" style="whiteSpace=wrap;html=1;aspect=fixed;" parent="1" vertex="1">
          <mxGeometry x="742.5" y="555" width="10" height="10" as="geometry" />
        </mxCell>
        <mxCell id="108" value="" style="whiteSpace=wrap;html=1;aspect=fixed;" parent="1" vertex="1">
          <mxGeometry x="742.5" y="565" width="10" height="10" as="geometry" />
        </mxCell>
        <mxCell id="109" value="" style="whiteSpace=wrap;html=1;aspect=fixed;" parent="1" vertex="1">
          <mxGeometry x="742.5" y="575" width="10" height="10" as="geometry" />
        </mxCell>
        <mxCell id="111" value="" style="whiteSpace=wrap;html=1;aspect=fixed;" parent="1" vertex="1">
          <mxGeometry x="870" y="585" width="40" height="40" as="geometry" />
        </mxCell>
        <mxCell id="112" value="" style="whiteSpace=wrap;html=1;aspect=fixed;" parent="1" vertex="1">
          <mxGeometry x="870" y="535" width="40" height="40" as="geometry" />
        </mxCell>
        <mxCell id="113" value="" style="whiteSpace=wrap;html=1;aspect=fixed;" parent="1" vertex="1">
          <mxGeometry x="870" y="485" width="40" height="40" as="geometry" />
        </mxCell>
        <mxCell id="114" value="" style="whiteSpace=wrap;html=1;aspect=fixed;" parent="1" vertex="1">
          <mxGeometry x="870" y="435" width="40" height="40" as="geometry" />
        </mxCell>
        <mxCell id="115" value="" style="whiteSpace=wrap;html=1;aspect=fixed;" parent="1" vertex="1">
          <mxGeometry x="870" y="385" width="40" height="40" as="geometry" />
        </mxCell>
        <mxCell id="116" value="" style="whiteSpace=wrap;html=1;aspect=fixed;" parent="1" vertex="1">
          <mxGeometry x="870" y="335" width="40" height="40" as="geometry" />
        </mxCell>
        <mxCell id="117" value="" style="whiteSpace=wrap;html=1;aspect=fixed;" parent="1" vertex="1">
          <mxGeometry x="870" y="285" width="40" height="40" as="geometry" />
        </mxCell>
        <mxCell id="118" value="" style="whiteSpace=wrap;html=1;aspect=fixed;" parent="1" vertex="1">
          <mxGeometry x="870" y="235" width="40" height="40" as="geometry" />
        </mxCell>
        <mxCell id="119" value="" style="whiteSpace=wrap;html=1;aspect=fixed;" parent="1" vertex="1">
          <mxGeometry x="870" y="185" width="40" height="40" as="geometry" />
        </mxCell>
        <mxCell id="120" value="" style="whiteSpace=wrap;html=1;aspect=fixed;" parent="1" vertex="1">
          <mxGeometry x="870" y="135" width="40" height="40" as="geometry" />
        </mxCell>
        <mxCell id="121" value="&lt;b&gt;Input&lt;/b&gt;" style="text;html=1;strokeColor=none;fillColor=none;align=center;verticalAlign=middle;whiteSpace=wrap;rounded=0;" parent="1" vertex="1">
          <mxGeometry x="110" y="80" width="60" height="40" as="geometry" />
        </mxCell>
        <mxCell id="123" value="&lt;b style=&quot;border-color: var(--border-color); color: rgb(0, 0, 0); font-family: Helvetica; font-size: 12px; font-style: normal; font-variant-ligatures: normal; font-variant-caps: normal; letter-spacing: normal; orphans: 2; text-indent: 0px; text-transform: none; widows: 2; word-spacing: 0px; -webkit-text-stroke-width: 0px; background-color: rgb(251, 251, 251); text-decoration-thickness: initial; text-decoration-style: initial; text-decoration-color: initial;&quot;&gt;Final Output&lt;/b&gt;" style="text;whiteSpace=wrap;html=1;align=center;verticalAlign=middle;" parent="1" vertex="1">
          <mxGeometry x="860" y="80" width="60" height="40" as="geometry" />
        </mxCell>
        <mxCell id="124" value="&lt;b&gt;Org. Image&lt;/b&gt;" style="text;html=1;strokeColor=none;fillColor=none;align=center;verticalAlign=middle;whiteSpace=wrap;rounded=0;" parent="1" vertex="1">
          <mxGeometry x="30" y="80" width="60" height="40" as="geometry" />
        </mxCell>
        <mxCell id="125" value="&lt;font style=&quot;font-size: 8px;&quot;&gt;GT&lt;/font&gt;" style="text;html=1;strokeColor=none;fillColor=none;align=center;verticalAlign=middle;whiteSpace=wrap;rounded=0;" parent="1" vertex="1">
          <mxGeometry x="710" y="170" width="60" height="30" as="geometry" />
        </mxCell>
        <mxCell id="126" value="&lt;font style=&quot;font-size: 8px;&quot;&gt;Shadow&lt;/font&gt;" style="text;html=1;strokeColor=none;fillColor=none;align=center;verticalAlign=middle;whiteSpace=wrap;rounded=0;" parent="1" vertex="1">
          <mxGeometry x="720" y="320" width="2.5" as="geometry" />
        </mxCell>
        <mxCell id="127" value="&lt;font style=&quot;font-size: 8px;&quot;&gt;Light&lt;/font&gt;" style="text;html=1;strokeColor=none;fillColor=none;align=center;verticalAlign=middle;whiteSpace=wrap;rounded=0;" parent="1" vertex="1">
          <mxGeometry x="752.5" y="320" width="2.5" as="geometry" />
        </mxCell>
        <mxCell id="129" value="&lt;font style=&quot;font-size: 8px;&quot;&gt;Binary mask&lt;/font&gt;" style="text;html=1;strokeColor=none;fillColor=none;align=center;verticalAlign=middle;whiteSpace=wrap;rounded=0;" parent="1" vertex="1">
          <mxGeometry x="690" y="470" width="47.5" height="10" as="geometry" />
        </mxCell>
        <mxCell id="130" value="&lt;font style=&quot;font-size: 8px;&quot;&gt;RGB&lt;/font&gt;" style="text;html=1;strokeColor=none;fillColor=none;align=center;verticalAlign=middle;whiteSpace=wrap;rounded=0;" parent="1" vertex="1">
          <mxGeometry x="748.75" y="470" width="10" height="10" as="geometry" />
        </mxCell>
        <mxCell id="131" value="SWIN ENCODER" style="shape=trapezoid;perimeter=trapezoidPerimeter;whiteSpace=wrap;fixedSize=1;fontSize=12;rotation=90;html=1;" parent="1" vertex="1">
          <mxGeometry x="20" y="320" width="480" height="120" as="geometry" />
        </mxCell>
        <mxCell id="133" value="UNET&lt;br&gt;DECODER" style="shape=trapezoid;perimeter=trapezoidPerimeter;whiteSpace=wrap;html=1;fixedSize=1;fontSize=12;rotation=-90;" parent="1" vertex="1">
          <mxGeometry x="440" y="320" width="120" height="120" as="geometry" />
        </mxCell>
        <mxCell id="141" value="&lt;b&gt;&lt;font style=&quot;font-size: 24px;&quot;&gt;=&lt;/font&gt;&lt;/b&gt;" style="text;html=1;strokeColor=none;fillColor=none;align=center;verticalAlign=middle;whiteSpace=wrap;rounded=0;fontSize=12;fontColor=#000000;" parent="1" vertex="1">
          <mxGeometry x="800" y="365" width="30" height="30" as="geometry" />
        </mxCell>
        <mxCell id="qvRjDoHIIoymI_N9E50h-141" value="&lt;font style=&quot;font-size: 8px;&quot;&gt;Occlusion&lt;/font&gt;" style="text;strokeColor=none;align=center;fillColor=none;html=1;verticalAlign=middle;whiteSpace=wrap;rounded=0;" vertex="1" parent="1">
          <mxGeometry x="710" y="445" width="60" height="30" as="geometry" />
        </mxCell>
      </root>
    </mxGraphModel>
  </diagram>
</mxfile>
